<svg id="visual" viewBox="0 0 900 600" width="900" height="600" xmlns="http://www.w3.org/2000/svg" xmlns:xlink="http://www.w3.org/1999/xlink" version="1.1"><g><g transform="translate(75 47)"><path d="M0 -48.6L48.6 0L0 48.6L-48.6 0Z" fill="none" stroke="#0b1317" stroke-width="2"></path></g><g transform="translate(830 52)"><path d="M0 -46L46 0L0 46L-46 0Z" fill="none" stroke="#0b1317" stroke-width="2"></path></g><g transform="translate(662 520)"><path d="M0 -44L44 0L0 44L-44 0Z" fill="none" stroke="#0b1317" stroke-width="2"></path></g><g transform="translate(466 466)"><path d="M0 -41L41 0L0 41L-41 0Z" fill="none" stroke="#0b1317" stroke-width="2"></path></g><g transform="translate(193 165)"><path d="M0 -37L37 0L0 37L-37 0Z" fill="none" stroke="#0b1317" stroke-width="2"></path></g><g transform="translate(712 241)"><path d="M0 -38L38 0L0 38L-38 0Z" fill="none" stroke="#0b1317" stroke-width="2"></path></g><g transform="translate(495 9)"><path d="M0 -44L44 0L0 44L-44 0Z" fill="none" stroke="#0b1317" stroke-width="2"></path></g><g transform="translate(353 157)"><path d="M0 -30L30 0L0 30L-30 0Z" fill="none" stroke="#0b1317" stroke-width="2"></path></g><g transform="translate(211 457)"><path d="M0 -41L41 0L0 41L-41 0Z" fill="none" stroke="#0b1317" stroke-width="2"></path></g><g transform="translate(580 421)"><path d="M0 -46L46 0L0 46L-46 0Z" fill="none" stroke="#0b1317" stroke-width="2"></path></g><g transform="translate(145 543)"><path d="M0 -33L33 0L0 33L-33 0Z" fill="none" stroke="#0b1317" stroke-width="2"></path></g><g transform="translate(249 245)"><path d="M0 -39L39 0L0 39L-39 0Z" fill="none" stroke="#0b1317" stroke-width="2"></path></g><g transform="translate(310 343)"><path d="M0 -45L45 0L0 45L-45 0Z" fill="none" stroke="#0b1317" stroke-width="2"></path></g><g transform="translate(795 309)"><path d="M0 -38L38 0L0 38L-38 0Z" fill="none" stroke="#0b1317" stroke-width="2"></path></g></g></svg>